<svg width="20" height="20" viewBox="0 0 20 20" fill="none" xmlns="http://www.w3.org/2000/svg">
<rect width="20" height="19.9992" rx="9.99958" fill="#1F1D2B"/>
<path d="M14.5081 9.50514C14.5081 10.062 14.3803 10.5732 14.1247 11.0387C13.8691 11.4951 13.4766 11.8648 12.9471 12.1478C12.4177 12.4308 11.7605 12.5723 10.9754 12.5723H9.52403V16.0228H7.18262V6.41064H10.9754C11.7422 6.41064 12.3903 6.54301 12.9198 6.80773C13.4492 7.07245 13.8463 7.43758 14.111 7.90312C14.3757 8.36867 14.5081 8.90267 14.5081 9.50514ZM10.7974 10.7101C11.2447 10.7101 11.5779 10.6051 11.797 10.3952C12.0161 10.1852 12.1256 9.88853 12.1256 9.50514C12.1256 9.12175 12.0161 8.82508 11.797 8.61513C11.5779 8.40518 11.2447 8.3002 10.7974 8.3002H9.52403V10.7101H10.7974Z" fill="white"/>
<path d="M14.556 3.97559H7.18237V5.52251H14.556V3.97559Z" fill="#DB2438"/>
</svg>
