<svg width="36" height="35" viewBox="0 0 36 35" fill="none" xmlns="http://www.w3.org/2000/svg">
<g filter="url(#filter0_d_308_1766)">
<path d="M18.1418 29.1684C25.1798 29.1684 30.8852 23.463 30.8852 16.425C30.8852 9.38704 25.1798 3.68164 18.1418 3.68164C11.1038 3.68164 5.39844 9.38704 5.39844 16.425C5.39844 23.463 11.1038 29.1684 18.1418 29.1684Z" fill="#2E3148"/>
<path d="M18.1109 23.6368C22.1773 23.6368 25.4737 20.3403 25.4737 16.274C25.4737 12.2076 22.1773 8.91113 18.1109 8.91113C14.0445 8.91113 10.748 12.2076 10.748 16.274C10.748 20.3403 14.0445 23.6368 18.1109 23.6368Z" fill="#1B1E36"/>
<path d="M34 16.2808C34 18.3819 33.5861 20.4625 32.7821 22.4037C31.978 24.3449 30.7994 26.1087 29.3137 27.5945C27.828 29.0802 26.0641 30.2588 24.1229 31.0628C22.1817 31.8669 20.1011 32.2808 18 32.2808C15.8988 32.2808 13.8183 31.8669 11.8771 31.0628C9.93585 30.2588 8.17203 29.0802 6.68629 27.5945C5.20055 26.1087 4.022 24.3449 3.21793 22.4037C2.41385 20.4625 2 18.3819 2 16.2808H5.8348C5.8348 17.8783 6.14946 19.4602 6.76082 20.9362C7.37218 22.4121 8.26826 23.7532 9.3979 24.8829C10.5275 26.0125 11.8686 26.9086 13.3446 27.5199C14.8205 28.1313 16.4024 28.446 18 28.446C19.5976 28.446 21.1795 28.1313 22.6554 27.5199C24.1314 26.9086 25.4725 26.0125 26.6021 24.8829C27.7317 23.7532 28.6278 22.4121 29.2392 20.9362C29.8505 19.4602 30.1652 17.8783 30.1652 16.2808H34Z" fill="#C73238"/>
<path d="M30.6318 16.2805C30.6318 17.9393 30.3051 19.5819 29.6703 21.1144C29.0355 22.6469 28.1051 24.0394 26.9321 25.2124C25.7592 26.3853 24.3667 27.3158 22.8341 27.9506C21.3016 28.5854 19.659 28.9121 18.0002 28.9121C16.3414 28.9121 14.6989 28.5854 13.1663 27.9506C11.6338 27.3158 10.2413 26.3853 9.06836 25.2124C7.89541 24.0394 6.96497 22.6469 6.33017 21.1144C5.69538 19.5819 5.36865 17.9393 5.36865 16.2805L18.0002 16.2805H30.6318Z" fill="#070B09"/>
<path d="M17.8835 5.27197C16.5384 5.27197 15.4478 10.1504 15.4478 16.1682C15.4478 22.1861 16.5384 27.0645 17.8835 27.0645C19.2285 27.0645 20.3192 22.1861 20.3192 16.1682C20.3192 10.1504 19.2285 5.27197 17.8835 5.27197ZM18.0516 26.4496C17.8978 26.6547 17.744 26.5008 17.744 26.5008C17.1246 25.7831 16.8148 24.4498 16.8148 24.4498C15.7314 20.963 15.9892 13.4766 15.9892 13.4766C16.4984 7.53325 17.4247 6.12923 17.7399 5.81753C17.7721 5.78572 17.8145 5.76628 17.8596 5.76263C17.9047 5.75898 17.9497 5.77136 17.9865 5.79759C18.4439 6.12166 18.8275 7.47693 18.8275 7.47693C19.9602 11.6816 19.8576 15.6299 19.8576 15.6299C19.9602 19.0654 19.29 22.9111 19.29 22.9111C18.7742 25.8338 18.0516 26.4496 18.0516 26.4496Z" fill="white"/>
<path d="M27.334 10.7449C26.6643 9.57786 21.8905 11.0597 16.6681 14.0544C11.4457 17.049 7.76186 20.4229 8.43102 21.5895C9.10018 22.756 13.8745 21.2747 19.0969 18.28C24.3193 15.2854 28.0032 11.9115 27.334 10.7449ZM9.04884 21.4294C8.79246 21.3971 8.85038 21.1864 8.85038 21.1864C9.16487 20.2921 10.1657 19.3599 10.1657 19.3599C12.652 16.6848 19.2745 13.1831 19.2745 13.1831C24.6826 10.667 26.3624 10.7731 26.7885 10.8905C26.8323 10.9027 26.8703 10.93 26.8958 10.9675C26.9214 11.0051 26.9328 11.0504 26.9281 11.0956C26.8769 11.6538 25.8897 12.6606 25.8897 12.6606C22.8084 15.7367 19.3324 17.6129 19.3324 17.6129C16.4034 19.4121 12.7342 20.7438 12.7342 20.7438C9.94219 21.7499 9.04894 21.4294 9.04894 21.4294H9.04884Z" fill="white"/>
<path d="M27.3109 21.6281C27.9857 20.4642 24.3112 17.0749 19.1072 14.0577C13.9032 11.0406 9.12999 9.54046 8.45575 10.7064C7.78151 11.8724 11.4554 15.2597 16.6624 18.2768C21.8694 21.2939 26.6367 22.7942 27.3109 21.6281ZM8.90292 11.1562C8.80324 10.9198 9.01366 10.8629 9.01366 10.8629C9.94528 10.687 11.2539 11.0879 11.2539 11.0879C14.814 11.8986 21.1621 15.875 21.1621 15.875C26.0497 19.2951 26.7993 20.8016 26.9117 21.2292C26.9231 21.2731 26.9187 21.3196 26.8992 21.3605C26.8796 21.4014 26.8463 21.4341 26.805 21.4528C26.2954 21.6861 24.9303 21.3385 24.9303 21.3385C20.7231 20.2104 17.3584 18.1435 17.3584 18.1435C14.3352 16.513 11.3458 14.004 11.3458 14.004C9.07427 12.0915 8.90362 11.1588 8.90362 11.1588L8.90292 11.1562Z" fill="white"/>
<path d="M17.8576 17.4227C18.5656 17.4227 19.1395 16.8488 19.1395 16.1408C19.1395 15.4328 18.5656 14.8589 17.8576 14.8589C17.1496 14.8589 16.5757 15.4328 16.5757 16.1408C16.5757 16.8488 17.1496 17.4227 17.8576 17.4227Z" fill="white"/>
<path d="M23.114 11.9885C23.5246 11.9885 23.8575 11.6441 23.8575 11.2193C23.8575 10.7946 23.5246 10.4502 23.114 10.4502C22.7034 10.4502 22.3706 10.7946 22.3706 11.2193C22.3706 11.6441 22.7034 11.9885 23.114 11.9885Z" fill="white"/>
<path d="M10.9091 14.6032C11.3197 14.6032 11.6526 14.2589 11.6526 13.8341C11.6526 13.4093 11.3197 13.0649 10.9091 13.0649C10.4984 13.0649 10.1655 13.4093 10.1655 13.8341C10.1655 14.2589 10.4984 14.6032 10.9091 14.6032Z" fill="white"/>
<path d="M16.3451 24.0378C16.7558 24.0378 17.0887 23.6934 17.0887 23.2687C17.0887 22.8439 16.7558 22.4995 16.3451 22.4995C15.9345 22.4995 15.6016 22.8439 15.6016 23.2687C15.6016 23.6934 15.9345 24.0378 16.3451 24.0378Z" fill="white"/>
</g>
<defs>
<filter id="filter0_d_308_1766" x="0.877193" y="0" width="34.2456" height="34.5264" filterUnits="userSpaceOnUse" color-interpolation-filters="sRGB">
<feFlood flood-opacity="0" result="BackgroundImageFix"/>
<feColorMatrix in="SourceAlpha" type="matrix" values="0 0 0 0 0 0 0 0 0 0 0 0 0 0 0 0 0 0 127 0" result="hardAlpha"/>
<feOffset dy="1.12281"/>
<feGaussianBlur stdDeviation="0.561404"/>
<feComposite in2="hardAlpha" operator="out"/>
<feColorMatrix type="matrix" values="0 0 0 0 0 0 0 0 0 0 0 0 0 0 0 0 0 0 0.25 0"/>
<feBlend mode="normal" in2="BackgroundImageFix" result="effect1_dropShadow_308_1766"/>
<feBlend mode="normal" in="SourceGraphic" in2="effect1_dropShadow_308_1766" result="shape"/>
</filter>
</defs>
</svg>
