<svg width="32" height="32" viewBox="0 0 32 32" fill="none" xmlns="http://www.w3.org/2000/svg">
<path d="M16 32C7.2 32 0 24.8 0 16C0 7.2 7.2 0 16 0C24.8 0 32 7.2 32 16C32 24.8 24.8 32 16 32Z" fill="#4BDB4B"/>
<path opacity="0.4" d="M25.3051 19.1311C26.1051 20.5977 25.5718 22.4644 24.2384 23.2644C22.7718 24.0644 20.9051 23.5311 20.1051 22.1977L13.7051 11.2644C12.9051 9.79774 13.4384 7.93107 14.9051 7.13107C16.3718 6.19774 18.1051 6.73107 19.0384 8.19774L25.3051 19.1311Z" fill="black"/>
<path opacity="0.65" d="M12.7312 22.1977C11.9312 23.6644 10.0646 24.1977 8.59789 23.2644C7.13122 22.4644 6.59789 20.5977 7.53122 19.1311L13.7979 8.19774C14.5979 6.73107 16.4646 6.19774 17.9312 7.13107C19.3979 7.93107 19.9312 9.79774 18.9979 11.2644L12.7312 22.1977Z" fill="black"/>
<path d="M19.3999 9.73342C19.3999 11.4667 16.3332 15.7334 16.3332 15.7334C16.3332 15.7334 13.3999 11.4667 13.3999 9.73342C13.3999 8.00008 14.7332 6.66675 16.4666 6.66675C18.1999 6.66675 19.3999 8.13341 19.3999 9.73342Z" fill="black"/>
</svg>
